<svg xmlns="http://www.w3.org/2000/svg" viewBox="0 0 1600 990" width="1600" height="990" font-family="'Segoe UI', 'Helvetica Neue', Arial, sans-serif">
  <defs>
    <linearGradient id="bgGrad" x1="0%" y1="0%" x2="0%" y2="100%">
      <stop offset="0%" style="stop-color:#FAFBFC;stop-opacity:1" />
      <stop offset="100%" style="stop-color:#EEF1F5;stop-opacity:1" />
    </linearGradient>
    <linearGradient id="rawGrad" x1="0%" y1="0%" x2="0%" y2="100%">
      <stop offset="0%" style="stop-color:#E8F5E9;stop-opacity:1" />
      <stop offset="100%" style="stop-color:#C8E6C9;stop-opacity:1" />
    </linearGradient>
    <linearGradient id="bronzeGrad" x1="0%" y1="0%" x2="0%" y2="100%">
      <stop offset="0%" style="stop-color:#FFF3E0;stop-opacity:1" />
      <stop offset="100%" style="stop-color:#FFE0B2;stop-opacity:1" />
    </linearGradient>
    <linearGradient id="silverGrad" x1="0%" y1="0%" x2="0%" y2="100%">
      <stop offset="0%" style="stop-color:#E3F2FD;stop-opacity:1" />
      <stop offset="100%" style="stop-color:#BBDEFB;stop-opacity:1" />
    </linearGradient>
    <linearGradient id="goldGrad" x1="0%" y1="0%" x2="0%" y2="100%">
      <stop offset="0%" style="stop-color:#FFF8E1;stop-opacity:1" />
      <stop offset="100%" style="stop-color:#FFECB3;stop-opacity:1" />
    </linearGradient>
    <linearGradient id="headerGrad" x1="0%" y1="0%" x2="100%" y2="0%">
      <stop offset="0%" style="stop-color:#FFFFFF;stop-opacity:1" />
      <stop offset="50%" style="stop-color:#FAFCFF;stop-opacity:1" />
      <stop offset="100%" style="stop-color:#FFFFFF;stop-opacity:1" />
    </linearGradient>
    <filter id="shadow">
      <feDropShadow dx="0" dy="2" stdDeviation="3" flood-color="#000" flood-opacity="0.07"/>
    </filter>
    <filter id="shadowLg">
      <feDropShadow dx="0" dy="3" stdDeviation="5" flood-color="#000" flood-opacity="0.10"/>
    </filter>
    <marker id="arrowDark" markerWidth="8" markerHeight="8" refX="7" refY="3.5" orient="auto">
      <path d="M0,0 L0,7 L8,3.5 z" fill="#455A64"/>
    </marker>
    <marker id="arrowBlue" markerWidth="8" markerHeight="8" refX="7" refY="3.5" orient="auto">
      <path d="M0,0 L0,7 L8,3.5 z" fill="#1976D2"/>
    </marker>
    <marker id="arrowOrange" markerWidth="8" markerHeight="8" refX="7" refY="3.5" orient="auto">
      <path d="M0,0 L0,7 L8,3.5 z" fill="#E65100"/>
    </marker>
    <marker id="arrowGreen" markerWidth="8" markerHeight="8" refX="7" refY="3.5" orient="auto">
      <path d="M0,0 L0,7 L8,3.5 z" fill="#2E7D32"/>
    </marker>
    <marker id="arrowPurple" markerWidth="8" markerHeight="8" refX="7" refY="3.5" orient="auto">
      <path d="M0,0 L0,7 L8,3.5 z" fill="#6A1B9A"/>
    </marker>
    <marker id="arrowRed" markerWidth="8" markerHeight="8" refX="7" refY="3.5" orient="auto">
      <path d="M0,0 L0,7 L8,3.5 z" fill="#C62828"/>
    </marker>
  </defs>

  <!-- Background -->
  <rect width="1600" height="990" fill="url(#bgGrad)"/>

  <!-- ================================================================ -->
  <!-- HEADER -->
  <!-- ================================================================ -->
  <rect x="0" y="0" width="1600" height="82" fill="url(#headerGrad)" filter="url(#shadow)"/>
  <rect x="0" y="0" width="1600" height="4" fill="#29B5E8"/>

  <!-- Refined Snowflake crystal mark -->
  <g transform="translate(50,44)">
    <circle cx="0" cy="0" r="16" fill="#E3F2FD" stroke="#29B5E8" stroke-width="1.2"/>
    <line x1="0" y1="-9" x2="0" y2="9" stroke="#29B5E8" stroke-width="2.2" stroke-linecap="round"/>
    <line x1="-7.8" y1="-4.5" x2="7.8" y2="4.5" stroke="#29B5E8" stroke-width="2.2" stroke-linecap="round"/>
    <line x1="-7.8" y1="4.5" x2="7.8" y2="-4.5" stroke="#29B5E8" stroke-width="2.2" stroke-linecap="round"/>
    <circle cx="0" cy="-9" r="1.8" fill="#29B5E8"/>
    <circle cx="0" cy="9" r="1.8" fill="#29B5E8"/>
    <circle cx="-7.8" cy="-4.5" r="1.8" fill="#29B5E8"/>
    <circle cx="7.8" cy="4.5" r="1.8" fill="#29B5E8"/>
    <circle cx="-7.8" cy="4.5" r="1.8" fill="#29B5E8"/>
    <circle cx="7.8" cy="-4.5" r="1.8" fill="#29B5E8"/>
  </g>

  <!-- Industry-standard pharma heading -->
  <text x="800" y="36" text-anchor="middle" font-size="21" font-weight="700" fill="#1A237E" letter-spacing="0.3">Integrated Safety Signal Management Platform</text>
  <text x="800" y="56" text-anchor="middle" font-size="13" fill="#37474F" letter-spacing="0.5">End-to-End ICSR Processing | Automated Signal Detection | Regulatory Compliance (21 CFR §314.81)</text>
  <text x="800" y="74" text-anchor="middle" font-size="10" fill="#78909C" letter-spacing="1">SNOWFLAKE-NATIVE  |  ZERO DATA EGRESS  |  GxP-READY</text>

  <!-- ================================================================ -->
  <!-- PHASE LABELS -->
  <!-- ================================================================ -->
  <rect x="40" y="94" width="720" height="28" rx="4" fill="#E8EAF6" stroke="#3F51B5" stroke-width="1"/>
  <text x="400" y="112" text-anchor="middle" font-size="11" font-weight="700" fill="#283593" letter-spacing="0.8">PHASE 1: STRUCTURED ICSR PROCESSING — FAERS Reports + Clinical Narratives</text>

  <rect x="840" y="94" width="720" height="28" rx="4" fill="#E8F5E9" stroke="#388E3C" stroke-width="1"/>
  <text x="1200" y="112" text-anchor="middle" font-size="11" font-weight="700" fill="#1B5E20" letter-spacing="0.8">PHASE 2: MULTIMODAL SIGNAL CAPTURE — Call Center Audio + HCP Video</text>

  <!-- ================================================================ -->
  <!-- PHASE 1 — LEFT HALF -->
  <!-- ================================================================ -->

  <!-- DATA SOURCES (Phase 1) -->
  <text x="100" y="150" text-anchor="middle" font-size="10" font-weight="700" fill="#78909C" letter-spacing="1.5">DATA SOURCES</text>

  <!-- FAERS Card -->
  <rect x="30" y="162" width="140" height="72" rx="6" fill="#FFFFFF" stroke="#1976D2" stroke-width="1.5" filter="url(#shadow)"/>
  <rect x="30" y="162" width="140" height="22" rx="6" fill="#1976D2"/>
  <rect x="30" y="176" width="140" height="8" fill="#1976D2"/>
  <text x="100" y="178" text-anchor="middle" font-size="10" font-weight="600" fill="#FFFFFF">FAERS Reports</text>
  <text x="100" y="200" text-anchor="middle" font-size="8.5" fill="#455A64">Structured AE Data</text>
  <text x="100" y="213" text-anchor="middle" font-size="7.5" fill="#78909C">MedDRA Coded | Demographics</text>
  <text x="100" y="225" text-anchor="middle" font-size="7.5" fill="#78909C">500 FAERS-style records</text>

  <!-- CIOMS Card -->
  <rect x="30" y="248" width="140" height="72" rx="6" fill="#FFFFFF" stroke="#388E3C" stroke-width="1.5" filter="url(#shadow)"/>
  <rect x="30" y="248" width="140" height="22" rx="6" fill="#388E3C"/>
  <rect x="30" y="262" width="140" height="8" fill="#388E3C"/>
  <text x="100" y="264" text-anchor="middle" font-size="10" font-weight="600" fill="#FFFFFF">CIOMS Narratives</text>
  <text x="100" y="286" text-anchor="middle" font-size="8.5" fill="#455A64">Clinical ICSRs</text>
  <text x="100" y="299" text-anchor="middle" font-size="7.5" fill="#78909C">Unstructured Free Text</text>
  <text x="100" y="311" text-anchor="middle" font-size="7.5" fill="#78909C">20 clinical narratives</text>

  <!-- Arrows to D_RAW -->
  <line x1="170" y1="198" x2="210" y2="198" stroke="#1976D2" stroke-width="1.5" marker-end="url(#arrowBlue)"/>
  <line x1="170" y1="284" x2="210" y2="284" stroke="#2E7D32" stroke-width="1.5" marker-end="url(#arrowGreen)"/>

  <!-- D_RAW (Phase 1) -->
  <rect x="210" y="152" width="220" height="120" rx="8" fill="url(#rawGrad)" stroke="#2E7D32" stroke-width="1.5" filter="url(#shadow)"/>
  <rect x="210" y="152" width="220" height="26" rx="8" fill="#2E7D32"/>
  <rect x="210" y="168" width="220" height="10" fill="#2E7D32"/>
  <text x="320" y="170" text-anchor="middle" font-size="11" font-weight="700" fill="#FFFFFF">D_RAW — Ingestion</text>
  <rect x="225" y="190" width="190" height="20" rx="4" fill="#FFFFFF" stroke="#66BB6A" stroke-width="1"/>
  <text x="320" y="204" text-anchor="middle" font-size="9" fill="#2E7D32">AE_REPORTS (500 rows)</text>
  <rect x="225" y="215" width="190" height="20" rx="4" fill="#FFFFFF" stroke="#66BB6A" stroke-width="1"/>
  <text x="320" y="229" text-anchor="middle" font-size="9" fill="#2E7D32">AE_NARRATIVES (20 rows)</text>
  <text x="320" y="252" text-anchor="middle" font-size="8" fill="#558B2F">COPY INTO | Stage-based Batch Ingestion</text>
  <text x="320" y="265" text-anchor="middle" font-size="8" fill="#558B2F">Stored Procedure Orchestrated</text>

  <!-- Arrow RAW to BRONZE -->
  <line x1="320" y1="272" x2="320" y2="298" stroke="#E65100" stroke-width="2" marker-end="url(#arrowOrange)"/>
  <text x="348" y="289" font-size="8" font-weight="600" fill="#E65100">Cortex AI</text>

  <!-- D_BRONZE (Phase 1) -->
  <rect x="210" y="298" width="220" height="140" rx="8" fill="url(#bronzeGrad)" stroke="#E65100" stroke-width="1.5" filter="url(#shadow)"/>
  <rect x="210" y="298" width="220" height="26" rx="8" fill="#E65100"/>
  <rect x="210" y="314" width="220" height="10" fill="#E65100"/>
  <text x="320" y="316" text-anchor="middle" font-size="11" font-weight="700" fill="#FFFFFF">D_BRONZE — AI Enrichment</text>
  <rect x="225" y="333" width="92" height="20" rx="4" fill="#FFFFFF" stroke="#FF9800" stroke-width="1"/>
  <text x="271" y="347" text-anchor="middle" font-size="7.5" fill="#E65100">CLASSIFIED_EVENTS</text>
  <rect x="323" y="333" width="92" height="20" rx="4" fill="#FFFFFF" stroke="#FF9800" stroke-width="1"/>
  <text x="369" y="347" text-anchor="middle" font-size="7.5" fill="#E65100">BRONZE_NARRATIVES</text>
  <!-- AI function pills -->
  <rect x="225" y="362" width="58" height="16" rx="8" fill="#E65100" opacity="0.85"/>
  <text x="254" y="374" text-anchor="middle" font-size="7" fill="#FFFFFF">AI_CLASSIFY</text>
  <rect x="288" y="362" width="58" height="16" rx="8" fill="#E65100" opacity="0.85"/>
  <text x="317" y="374" text-anchor="middle" font-size="7" fill="#FFFFFF">AI_EXTRACT</text>
  <rect x="351" y="362" width="62" height="16" rx="8" fill="#E65100" opacity="0.85"/>
  <text x="382" y="374" text-anchor="middle" font-size="7" fill="#FFFFFF">SENTIMENT</text>
  <text x="320" y="398" text-anchor="middle" font-size="8" fill="#795548">SOC classification | Entity extraction</text>
  <text x="320" y="412" text-anchor="middle" font-size="8" fill="#795548">Sentiment scoring | NLP enrichment</text>
  <text x="320" y="426" text-anchor="middle" font-size="8" fill="#795548">Single-pass AI pipeline</text>

  <!-- Arrow BRONZE to SILVER -->
  <line x1="320" y1="438" x2="320" y2="464" stroke="#1565C0" stroke-width="2" marker-end="url(#arrowBlue)"/>
  <text x="348" y="455" font-size="8" font-weight="600" fill="#1565C0">Dynamic Tables</text>

  <!-- D_SILVER (Phase 1) -->
  <rect x="210" y="464" width="220" height="152" rx="8" fill="url(#silverGrad)" stroke="#1565C0" stroke-width="1.5" filter="url(#shadow)"/>
  <rect x="210" y="464" width="220" height="26" rx="8" fill="#1565C0"/>
  <rect x="210" y="480" width="220" height="10" fill="#1565C0"/>
  <text x="320" y="482" text-anchor="middle" font-size="11" font-weight="700" fill="#FFFFFF">D_SILVER — Curated (CDC)</text>
  <rect x="225" y="500" width="92" height="20" rx="4" fill="#FFFFFF" stroke="#42A5F5" stroke-width="1"/>
  <text x="271" y="514" text-anchor="middle" font-size="8" fill="#1565C0">FACT_AE</text>
  <rect x="323" y="500" width="92" height="20" rx="4" fill="#FFFFFF" stroke="#42A5F5" stroke-width="1"/>
  <text x="369" y="514" text-anchor="middle" font-size="8" fill="#1565C0">FACT_NARRATIVE</text>
  <rect x="225" y="525" width="92" height="20" rx="4" fill="#FFFFFF" stroke="#42A5F5" stroke-width="1"/>
  <text x="271" y="539" text-anchor="middle" font-size="8" fill="#1565C0">DIM_PATIENT</text>
  <rect x="323" y="525" width="92" height="20" rx="4" fill="#FFFFFF" stroke="#42A5F5" stroke-width="1"/>
  <text x="369" y="539" text-anchor="middle" font-size="8" fill="#1565C0">DIM_DRUG</text>
  <text x="320" y="563" text-anchor="middle" font-size="8" fill="#1976D2">TARGET_LAG = 60 min | Declarative CDC</text>
  <text x="320" y="577" text-anchor="middle" font-size="8" fill="#1976D2">Composite joins | VARIANT extraction</text>
  <text x="320" y="591" text-anchor="middle" font-size="8" fill="#1976D2">Star schema dimensional model</text>
  <!-- Masking icon -->
  <path d="M268,600 L268,610 Q268,613 274,615 Q280,613 280,610 L280,600 Z" fill="none" stroke="#6A1B9A" stroke-width="1.3"/>
  <text x="293" y="610" font-size="7" fill="#6A1B9A">HIPAA Masking</text>

  <!-- ================================================================ -->
  <!-- PHASE 1 — GOLD / INTELLIGENCE -->
  <!-- ================================================================ -->
  <text x="600" y="150" text-anchor="middle" font-size="10" font-weight="700" fill="#78909C" letter-spacing="1.5">INTELLIGENCE LAYER</text>

  <!-- Cortex Search -->
  <rect x="490" y="162" width="220" height="78" rx="6" fill="#FFFFFF" stroke="#1976D2" stroke-width="1.5" filter="url(#shadow)"/>
  <rect x="490" y="162" width="220" height="22" rx="6" fill="#1976D2"/>
  <rect x="490" y="176" width="220" height="8" fill="#1976D2"/>
  <text x="600" y="179" text-anchor="middle" font-size="10" font-weight="600" fill="#FFFFFF">Cortex Search Service</text>
  <text x="600" y="200" text-anchor="middle" font-size="8.5" fill="#1976D2">Hybrid Semantic + Keyword Search</text>
  <text x="600" y="214" text-anchor="middle" font-size="7.5" fill="#546E7A">AE_NARRATIVE_SEARCH | TARGET_LAG = 1hr</text>
  <text x="600" y="228" text-anchor="middle" font-size="7.5" fill="#546E7A">ATTRIBUTES: CASE_ID, DRUG_NAME, AE_SOC_CLASS</text>

  <!-- Cortex Analyst -->
  <rect x="490" y="250" width="220" height="78" rx="6" fill="#FFFFFF" stroke="#6A1B9A" stroke-width="1.5" filter="url(#shadow)"/>
  <rect x="490" y="250" width="220" height="22" rx="6" fill="#6A1B9A"/>
  <rect x="490" y="264" width="220" height="8" fill="#6A1B9A"/>
  <text x="600" y="267" text-anchor="middle" font-size="10" font-weight="600" fill="#FFFFFF">Cortex Analyst</text>
  <text x="600" y="288" text-anchor="middle" font-size="8.5" fill="#6A1B9A">Natural Language to SQL</text>
  <text x="600" y="302" text-anchor="middle" font-size="7.5" fill="#546E7A">Semantic Model | Verified SQL generation</text>
  <text x="600" y="316" text-anchor="middle" font-size="7.5" fill="#546E7A">PRR calculation | Outcome analysis | Trend queries</text>

  <!-- Cortex Agent -->
  <rect x="490" y="338" width="220" height="90" rx="6" fill="#FFFFFF" stroke="#00838F" stroke-width="1.5" filter="url(#shadow)"/>
  <rect x="490" y="338" width="220" height="22" rx="6" fill="#00838F"/>
  <rect x="490" y="352" width="220" height="8" fill="#00838F"/>
  <text x="600" y="355" text-anchor="middle" font-size="10" font-weight="600" fill="#FFFFFF">Cortex Agent</text>
  <text x="600" y="376" text-anchor="middle" font-size="8.5" fill="#00838F">Intelligent Tool Routing</text>
  <text x="600" y="390" text-anchor="middle" font-size="7.5" fill="#546E7A">REST API | Routes: Search + Analyst</text>
  <text x="600" y="404" text-anchor="middle" font-size="7.5" fill="#546E7A">9 PV safety guidelines enforced</text>
  <text x="600" y="418" text-anchor="middle" font-size="7.5" fill="#546E7A">WHO-UMC causality assessment</text>

  <!-- PRR Signal Detection -->
  <rect x="490" y="438" width="220" height="68" rx="6" fill="#FFFFFF" stroke="#F57F17" stroke-width="1.5" filter="url(#shadow)"/>
  <rect x="490" y="438" width="220" height="22" rx="6" fill="#F57F17"/>
  <rect x="490" y="452" width="220" height="8" fill="#F57F17"/>
  <text x="600" y="455" text-anchor="middle" font-size="10" font-weight="600" fill="#FFFFFF">PRR Signal Detection</text>
  <text x="600" y="476" text-anchor="middle" font-size="8.5" fill="#E65100">PRR = (DE/D) / (E/N) | Threshold: PRR > 2.0</text>
  <text x="600" y="490" text-anchor="middle" font-size="7.5" fill="#546E7A">NULLIF zero-guard | Min 3 cases filter</text>
  <text x="600" y="502" text-anchor="middle" font-size="7.5" fill="#546E7A">Auto-flagging | Top 15 drug-event pairs</text>

  <!-- Streamlit (Phase 1) -->
  <rect x="490" y="516" width="220" height="72" rx="6" fill="#FFFFFF" stroke="#1565C0" stroke-width="1.5" filter="url(#shadow)"/>
  <rect x="490" y="516" width="220" height="22" rx="6" fill="#1565C0"/>
  <rect x="490" y="530" width="220" height="8" fill="#1565C0"/>
  <text x="600" y="533" text-anchor="middle" font-size="10" font-weight="600" fill="#FFFFFF">Streamlit in Snowflake</text>
  <text x="600" y="554" text-anchor="middle" font-size="7.5" fill="#1976D2">Tab 1: Signal Detection | PRR Heatmap</text>
  <text x="600" y="567" text-anchor="middle" font-size="7.5" fill="#1976D2">Tab 2: AI Agent Chat | Cortex Analyst</text>
  <text x="600" y="580" text-anchor="middle" font-size="7.5" fill="#1976D2">Tab 3: Clinical Narrative Search</text>

  <!-- Phase 1 flow arrows (Silver to Intelligence) -->
  <line x1="430" y1="520" x2="460" y2="520" stroke="#1976D2" stroke-width="1.3" stroke-dasharray="4,3"/>
  <line x1="460" y1="520" x2="460" y2="200" stroke="#1976D2" stroke-width="1.3" stroke-dasharray="4,3"/>
  <line x1="460" y1="200" x2="490" y2="200" stroke="#1976D2" stroke-width="1.3" marker-end="url(#arrowBlue)"/>

  <line x1="430" y1="535" x2="470" y2="535" stroke="#6A1B9A" stroke-width="1.3" stroke-dasharray="4,3"/>
  <line x1="470" y1="535" x2="470" y2="289" stroke="#6A1B9A" stroke-width="1.3" stroke-dasharray="4,3"/>
  <line x1="470" y1="289" x2="490" y2="289" stroke="#6A1B9A" stroke-width="1.3" marker-end="url(#arrowPurple)"/>

  <line x1="430" y1="550" x2="478" y2="550" stroke="#F57F17" stroke-width="1.3" stroke-dasharray="4,3"/>
  <line x1="478" y1="550" x2="478" y2="472" stroke="#F57F17" stroke-width="1.3" stroke-dasharray="4,3"/>
  <line x1="478" y1="472" x2="490" y2="472" stroke="#F57F17" stroke-width="1.3" marker-end="url(#arrowOrange)"/>

  <!-- Silver → Streamlit (Phase 1) -->
  <line x1="430" y1="565" x2="486" y2="565" stroke="#1565C0" stroke-width="1.3" stroke-dasharray="4,3"/>
  <line x1="486" y1="565" x2="486" y2="552" stroke="#1565C0" stroke-width="1.3" stroke-dasharray="4,3"/>
  <line x1="486" y1="552" x2="490" y2="552" stroke="#1565C0" stroke-width="1.3" marker-end="url(#arrowBlue)"/>

  <!-- ================================================================ -->
  <!-- PHASE 2 — RIGHT HALF -->
  <!-- ================================================================ -->

  <!-- DATA SOURCES (Phase 2) -->
  <text x="900" y="150" text-anchor="middle" font-size="10" font-weight="700" fill="#78909C" letter-spacing="1.5">DATA SOURCES</text>

  <!-- Call Recordings -->
  <rect x="840" y="162" width="140" height="72" rx="6" fill="#FFFFFF" stroke="#1976D2" stroke-width="1.5" filter="url(#shadow)"/>
  <rect x="840" y="162" width="140" height="22" rx="6" fill="#1976D2"/>
  <rect x="840" y="176" width="140" height="8" fill="#1976D2"/>
  <text x="910" y="178" text-anchor="middle" font-size="10" font-weight="600" fill="#FFFFFF">Call Recordings</text>
  <text x="910" y="200" text-anchor="middle" font-size="8.5" fill="#455A64">MP3 | WAV | AAC</text>
  <text x="910" y="213" text-anchor="middle" font-size="7.5" fill="#78909C">Medical Info Center Calls</text>
  <text x="910" y="225" text-anchor="middle" font-size="7.5" fill="#78909C">10 recordings (synthetic)</text>

  <!-- HCP Video -->
  <rect x="840" y="248" width="140" height="72" rx="6" fill="#FFFFFF" stroke="#388E3C" stroke-width="1.5" filter="url(#shadow)"/>
  <rect x="840" y="248" width="140" height="22" rx="6" fill="#388E3C"/>
  <rect x="840" y="262" width="140" height="8" fill="#388E3C"/>
  <text x="910" y="264" text-anchor="middle" font-size="10" font-weight="600" fill="#FFFFFF">HCP Video Visits</text>
  <text x="910" y="286" text-anchor="middle" font-size="8.5" fill="#455A64">MP4 | MOV | WEBM</text>
  <text x="910" y="299" text-anchor="middle" font-size="7.5" fill="#78909C">Detail Visit Recordings</text>
  <text x="910" y="311" text-anchor="middle" font-size="7.5" fill="#78909C">5 videos (synthetic)</text>

  <!-- Arrows to CX_RAW -->
  <line x1="980" y1="198" x2="1020" y2="198" stroke="#1976D2" stroke-width="1.5" marker-end="url(#arrowBlue)"/>
  <line x1="980" y1="284" x2="1020" y2="284" stroke="#2E7D32" stroke-width="1.5" marker-end="url(#arrowGreen)"/>

  <!-- CX_RAW -->
  <rect x="1020" y="152" width="220" height="120" rx="8" fill="url(#rawGrad)" stroke="#2E7D32" stroke-width="1.5" filter="url(#shadow)"/>
  <rect x="1020" y="152" width="220" height="26" rx="8" fill="#2E7D32"/>
  <rect x="1020" y="168" width="220" height="10" fill="#2E7D32"/>
  <text x="1130" y="170" text-anchor="middle" font-size="11" font-weight="700" fill="#FFFFFF">CX_RAW — Ingestion Stage</text>
  <text x="1130" y="192" text-anchor="middle" font-size="8.5" fill="#2E7D32">SSE Encrypted | HIPAA-Compliant</text>
  <rect x="1035" y="200" width="190" height="18" rx="4" fill="#FFFFFF" stroke="#66BB6A" stroke-width="1"/>
  <text x="1130" y="213" text-anchor="middle" font-size="8" fill="#2E7D32">@CALL_RECORDING_STAGE (10 MP3s)</text>
  <rect x="1035" y="222" width="190" height="18" rx="4" fill="#FFFFFF" stroke="#66BB6A" stroke-width="1"/>
  <text x="1130" y="235" text-anchor="middle" font-size="8" fill="#2E7D32">@HCP_VIDEO_STAGE (5 MP4s)</text>
  <text x="1130" y="255" text-anchor="middle" font-size="8" fill="#558B2F">TO_FILE( ) | DIRECTORY( ) | AUTO_REFRESH</text>
  <text x="1130" y="267" text-anchor="middle" font-size="8" fill="#558B2F">Catalog-driven file discovery</text>

  <!-- Arrow RAW to BRONZE -->
  <line x1="1130" y1="272" x2="1130" y2="298" stroke="#E65100" stroke-width="2" marker-end="url(#arrowOrange)"/>
  <text x="1163" y="289" font-size="8" font-weight="600" fill="#E65100">3 AI Models</text>

  <!-- CX_BRONZE -->
  <rect x="1020" y="298" width="220" height="190" rx="8" fill="url(#bronzeGrad)" stroke="#E65100" stroke-width="1.5" filter="url(#shadow)"/>
  <rect x="1020" y="298" width="220" height="26" rx="8" fill="#E65100"/>
  <rect x="1020" y="314" width="220" height="10" fill="#E65100"/>
  <text x="1130" y="316" text-anchor="middle" font-size="11" font-weight="700" fill="#FFFFFF">CX_BRONZE — AI Enrichment</text>

  <!-- AI_TRANSCRIBE -->
  <rect x="1035" y="333" width="190" height="36" rx="4" fill="#FFFFFF" stroke="#FF9800" stroke-width="1"/>
  <text x="1130" y="348" text-anchor="middle" font-size="9" font-weight="600" fill="#E65100">AI_TRANSCRIBE</text>
  <text x="1130" y="362" text-anchor="middle" font-size="7.5" fill="#546E7A">Speech-to-Text | Speaker Diarization</text>

  <!-- gemini-3.1-pro -->
  <rect x="1035" y="375" width="190" height="36" rx="4" fill="#FFFFFF" stroke="#1976D2" stroke-width="1"/>
  <text x="1130" y="390" text-anchor="middle" font-size="9" font-weight="600" fill="#1565C0">gemini-3.1-pro (Multimodal)</text>
  <text x="1130" y="404" text-anchor="middle" font-size="7.5" fill="#546E7A">Tone | Urgency | Compliance Score (0-100)</text>

  <!-- claude-sonnet-4-6 -->
  <rect x="1035" y="417" width="190" height="36" rx="4" fill="#FFFFFF" stroke="#E65100" stroke-width="1"/>
  <text x="1130" y="432" text-anchor="middle" font-size="9" font-weight="600" fill="#BF360C">claude-sonnet-4-6 (Medical NLP)</text>
  <text x="1130" y="446" text-anchor="middle" font-size="7.5" fill="#546E7A">AE Detection | MedDRA | ICSR | WHO-UMC</text>

  <text x="1130" y="470" text-anchor="middle" font-size="8" fill="#795548">Structured JSON output | Schema-enforced</text>
  <text x="1130" y="483" text-anchor="middle" font-size="8" fill="#795548">CRON-scheduled pipeline (catalog + transcribe)</text>

  <!-- Arrow BRONZE to SILVER -->
  <line x1="1130" y1="488" x2="1130" y2="514" stroke="#1565C0" stroke-width="2" marker-end="url(#arrowBlue)"/>
  <text x="1163" y="505" font-size="8" font-weight="600" fill="#1565C0">Dynamic Tables</text>

  <!-- CX_SILVER -->
  <rect x="1020" y="514" width="220" height="100" rx="8" fill="url(#silverGrad)" stroke="#1565C0" stroke-width="1.5" filter="url(#shadow)"/>
  <rect x="1020" y="514" width="220" height="26" rx="8" fill="#1565C0"/>
  <rect x="1020" y="530" width="220" height="10" fill="#1565C0"/>
  <text x="1130" y="532" text-anchor="middle" font-size="11" font-weight="700" fill="#FFFFFF">CX_SILVER — Curated (CDC)</text>
  <rect x="1035" y="550" width="190" height="18" rx="4" fill="#FFFFFF" stroke="#42A5F5" stroke-width="1"/>
  <text x="1130" y="563" text-anchor="middle" font-size="8" fill="#1565C0">FACT_AE_CALLS (12 rows)</text>
  <rect x="1035" y="572" width="190" height="18" rx="4" fill="#FFFFFF" stroke="#42A5F5" stroke-width="1"/>
  <text x="1130" y="585" text-anchor="middle" font-size="8" fill="#1565C0">FACT_AGENT_COMPLIANCE (10 rows)</text>
  <text x="1130" y="604" text-anchor="middle" font-size="8" fill="#1976D2">TARGET_LAG = 30 min | TRY_PARSE_JSON guard</text>

  <!-- Phase 2 Intelligence -->
  <text x="1410" y="150" text-anchor="middle" font-size="10" font-weight="700" fill="#78909C" letter-spacing="1.5">INTELLIGENCE</text>

  <!-- AE Triage Queue -->
  <rect x="1300" y="162" width="220" height="95" rx="6" fill="#FFFFFF" stroke="#C62828" stroke-width="2" filter="url(#shadow)"/>
  <rect x="1300" y="162" width="220" height="22" rx="6" fill="#C62828"/>
  <rect x="1300" y="176" width="220" height="8" fill="#C62828"/>
  <text x="1410" y="179" text-anchor="middle" font-size="10" font-weight="600" fill="#FFFFFF">AE TRIAGE QUEUE</text>
  <!-- 15-day badge -->
  <rect x="1468" y="165" width="46" height="16" rx="8" fill="#FF5252"/>
  <text x="1491" y="177" text-anchor="middle" font-size="7" font-weight="700" fill="#FFFFFF">15-DAY</text>
  <text x="1410" y="200" text-anchor="middle" font-size="8" fill="#C62828">FDA 21 CFR §314.81 Compliance</text>
  <text x="1410" y="214" text-anchor="middle" font-size="7.5" fill="#546E7A">Auto-detected AEs | ICSR-ready output</text>
  <text x="1410" y="228" text-anchor="middle" font-size="7.5" fill="#546E7A">MedDRA PT + SOC | WHO-UMC causality</text>
  <!-- Priority badges -->
  <rect x="1310" y="235" width="48" height="14" rx="7" fill="#C62828"/>
  <text x="1334" y="245" text-anchor="middle" font-size="7" fill="#FFFFFF">URGENT</text>
  <rect x="1364" y="235" width="55" height="14" rx="7" fill="#E65100"/>
  <text x="1391" y="245" text-anchor="middle" font-size="7" fill="#FFFFFF">ACTION</text>
  <rect x="1425" y="235" width="60" height="14" rx="7" fill="#2E7D32"/>
  <text x="1455" y="245" text-anchor="middle" font-size="7" fill="#FFFFFF">STANDARD</text>

  <!-- Agent Compliance -->
  <rect x="1300" y="270" width="220" height="76" rx="6" fill="#FFFFFF" stroke="#00838F" stroke-width="1.5" filter="url(#shadow)"/>
  <rect x="1300" y="270" width="220" height="22" rx="6" fill="#00838F"/>
  <rect x="1300" y="284" width="220" height="8" fill="#00838F"/>
  <text x="1410" y="287" text-anchor="middle" font-size="10" font-weight="600" fill="#FFFFFF">Agent Compliance Scoring</text>
  <text x="1410" y="308" text-anchor="middle" font-size="8.5" fill="#00838F">Acoustic + NLP analysis</text>
  <text x="1410" y="322" text-anchor="middle" font-size="7.5" fill="#546E7A">0-100 compliance score per call</text>
  <text x="1410" y="336" text-anchor="middle" font-size="7.5" fill="#546E7A">Coaching queue | Escalation flags | Tone</text>

  <!-- Unified PRR Signal -->
  <rect x="1300" y="358" width="220" height="76" rx="6" fill="#FFFFFF" stroke="#F57F17" stroke-width="1.5" filter="url(#shadow)"/>
  <rect x="1300" y="358" width="220" height="22" rx="6" fill="#F57F17"/>
  <rect x="1300" y="372" width="220" height="8" fill="#F57F17"/>
  <text x="1410" y="375" text-anchor="middle" font-size="10" font-weight="600" fill="#FFFFFF">Unified PRR Signal Detection</text>
  <text x="1410" y="396" text-anchor="middle" font-size="8.5" fill="#E65100">FAERS + Call Center AEs Combined</text>
  <text x="1410" y="410" text-anchor="middle" font-size="7.5" fill="#546E7A">PRR > 2.0 | FAERS + Call Center combined</text>
  <text x="1410" y="424" text-anchor="middle" font-size="7.5" fill="#546E7A">Cross-source signals missed by FAERS alone</text>

  <!-- PharmaCX Streamlit -->
  <rect x="1300" y="446" width="220" height="72" rx="6" fill="#FFFFFF" stroke="#1565C0" stroke-width="1.5" filter="url(#shadow)"/>
  <rect x="1300" y="446" width="220" height="22" rx="6" fill="#1565C0"/>
  <rect x="1300" y="460" width="220" height="8" fill="#1565C0"/>
  <text x="1410" y="463" text-anchor="middle" font-size="10" font-weight="600" fill="#FFFFFF">Streamlit in Snowflake</text>
  <text x="1410" y="484" text-anchor="middle" font-size="7.5" fill="#1976D2">Tab 1: AE Triage Queue | 15-day countdown</text>
  <text x="1410" y="497" text-anchor="middle" font-size="7.5" fill="#1976D2">Tab 2: Agent Compliance | Coaching Queue</text>
  <text x="1410" y="510" text-anchor="middle" font-size="7.5" fill="#1976D2">Tab 3: Call Search | Cortex Semantic</text>

  <!-- Phase 2 flow arrows (Silver to Intelligence) -->
  <line x1="1240" y1="560" x2="1270" y2="560" stroke="#C62828" stroke-width="1.3" stroke-dasharray="4,3"/>
  <line x1="1270" y1="560" x2="1270" y2="210" stroke="#C62828" stroke-width="1.3" stroke-dasharray="4,3"/>
  <line x1="1270" y1="210" x2="1300" y2="210" stroke="#C62828" stroke-width="1.3" marker-end="url(#arrowRed)"/>

  <line x1="1240" y1="575" x2="1280" y2="575" stroke="#00838F" stroke-width="1.3" stroke-dasharray="4,3"/>
  <line x1="1280" y1="575" x2="1280" y2="310" stroke="#00838F" stroke-width="1.3" stroke-dasharray="4,3"/>
  <line x1="1280" y1="310" x2="1300" y2="310" stroke="#00838F" stroke-width="1.3" stroke-dasharray="4,3" marker-end="url(#arrowDark)"/>

  <line x1="1240" y1="590" x2="1288" y2="590" stroke="#F57F17" stroke-width="1.3" stroke-dasharray="4,3"/>
  <line x1="1288" y1="590" x2="1288" y2="396" stroke="#F57F17" stroke-width="1.3" stroke-dasharray="4,3"/>
  <line x1="1288" y1="396" x2="1300" y2="396" stroke="#F57F17" stroke-width="1.3" marker-end="url(#arrowOrange)"/>

  <!-- Silver → Streamlit (Phase 2) -->
  <line x1="1240" y1="604" x2="1296" y2="604" stroke="#1565C0" stroke-width="1.3" stroke-dasharray="4,3"/>
  <line x1="1296" y1="604" x2="1296" y2="482" stroke="#1565C0" stroke-width="1.3" stroke-dasharray="4,3"/>
  <line x1="1296" y1="482" x2="1300" y2="482" stroke="#1565C0" stroke-width="1.3" marker-end="url(#arrowBlue)"/>

  <!-- ================================================================ -->
  <!-- CROSS-PHASE CONVERGENCE (prominent shared database band) -->
  <!-- ================================================================ -->
  <rect x="660" y="622" width="280" height="40" rx="8" fill="#EDE7F6" stroke="#6A1B9A" stroke-width="2" stroke-dasharray="8,4" filter="url(#shadowLg)"/>
  <text x="800" y="639" text-anchor="middle" font-size="10" font-weight="700" fill="#4A148C">SHARED DATABASE: PHARMACOVIGILANCE</text>
  <text x="800" y="654" text-anchor="middle" font-size="8" fill="#6A1B9A">Single source of truth | Both pipelines converge | Unified PRR</text>
  <!-- Left arrow from Phase 1 -->
  <line x1="600" y1="600" x2="600" y2="642" stroke="#6A1B9A" stroke-width="1.5" stroke-dasharray="4,3"/>
  <line x1="600" y1="642" x2="660" y2="642" stroke="#6A1B9A" stroke-width="1.5" stroke-dasharray="4,3" marker-end="url(#arrowPurple)"/>
  <!-- Right arrow from Phase 2 -->
  <line x1="1130" y1="614" x2="1130" y2="642" stroke="#6A1B9A" stroke-width="1.5" stroke-dasharray="4,3"/>
  <line x1="1130" y1="642" x2="940" y2="642" stroke="#6A1B9A" stroke-width="1.5" stroke-dasharray="4,3"/>
  <path d="M944,638 L934,642 L944,646 z" fill="#6A1B9A"/>

  <!-- ================================================================ -->
  <!-- GOVERNANCE BAND -->
  <!-- ================================================================ -->
  <rect x="40" y="675" width="1520" height="100" rx="8" fill="#FFFFFF" stroke="#6A1B9A" stroke-width="1.5" filter="url(#shadowLg)"/>
  <rect x="40" y="675" width="1520" height="28" rx="8" fill="#6A1B9A"/>
  <rect x="40" y="693" width="1520" height="10" fill="#6A1B9A"/>
  <!-- Shield icon -->
  <path d="M56,680 L56,695 Q56,700 65,703 Q74,700 74,695 L74,680 Z" fill="none" stroke="#FFFFFF" stroke-width="1.5"/>
  <text x="800" y="695" text-anchor="middle" font-size="12" font-weight="700" fill="#FFFFFF" letter-spacing="1">DATA GOVERNANCE  |  SECURITY  |  OBSERVABILITY</text>

  <!-- 6 governance pillars -->
  <rect x="60" y="713" width="210" height="44" rx="5" fill="#F3E5F5" stroke="#8E24AA" stroke-width="1"/>
  <text x="165" y="729" text-anchor="middle" font-size="9" font-weight="600" fill="#6A1B9A">SYSTEM$CLASSIFY</text>
  <text x="165" y="742" text-anchor="middle" font-size="7.5" fill="#546E7A">Auto PHI/PII detection</text>
  <text x="165" y="753" text-anchor="middle" font-size="7.5" fill="#546E7A">HIPAA_CATEGORY tags</text>

  <rect x="290" y="713" width="210" height="44" rx="5" fill="#F3E5F5" stroke="#8E24AA" stroke-width="1"/>
  <text x="395" y="729" text-anchor="middle" font-size="9" font-weight="600" fill="#6A1B9A">Dynamic Data Masking</text>
  <text x="395" y="742" text-anchor="middle" font-size="7.5" fill="#546E7A">MASK_PATIENT_ID | MASK_DOB</text>
  <text x="395" y="753" text-anchor="middle" font-size="7.5" fill="#546E7A">Role-based PHI redaction</text>

  <rect x="520" y="713" width="210" height="44" rx="5" fill="#F3E5F5" stroke="#8E24AA" stroke-width="1"/>
  <text x="625" y="729" text-anchor="middle" font-size="9" font-weight="600" fill="#6A1B9A">Data Metric Functions</text>
  <text x="625" y="742" text-anchor="middle" font-size="7.5" fill="#546E7A">NULL_COUNT | ROW_COUNT</text>
  <text x="625" y="753" text-anchor="middle" font-size="7.5" fill="#546E7A">Continuous freshness monitoring</text>

  <rect x="750" y="713" width="210" height="44" rx="5" fill="#F3E5F5" stroke="#8E24AA" stroke-width="1"/>
  <text x="855" y="729" text-anchor="middle" font-size="9" font-weight="600" fill="#6A1B9A">SSE Stage Encryption</text>
  <text x="855" y="742" text-anchor="middle" font-size="7.5" fill="#546E7A">SNOWFLAKE_SSE on all stages</text>
  <text x="855" y="753" text-anchor="middle" font-size="7.5" fill="#546E7A">At-rest encryption for media</text>

  <rect x="980" y="713" width="210" height="44" rx="5" fill="#F3E5F5" stroke="#8E24AA" stroke-width="1"/>
  <text x="1085" y="729" text-anchor="middle" font-size="9" font-weight="600" fill="#6A1B9A">AI Observability</text>
  <text x="1085" y="742" text-anchor="middle" font-size="7.5" fill="#546E7A">AI function call telemetry</text>
  <text x="1085" y="753" text-anchor="middle" font-size="7.5" fill="#546E7A">Error rate | Latency | Token usage</text>

  <rect x="1210" y="713" width="210" height="44" rx="5" fill="#F3E5F5" stroke="#8E24AA" stroke-width="1"/>
  <text x="1315" y="729" text-anchor="middle" font-size="9" font-weight="600" fill="#6A1B9A">Multi-Tier RBAC</text>
  <text x="1315" y="742" text-anchor="middle" font-size="7.5" fill="#546E7A">DSO | PV_Analyst | CX_Quality | CX_Supervisor</text>
  <text x="1315" y="753" text-anchor="middle" font-size="7.5" fill="#546E7A">Least-privilege | Schema-level grants</text>

  <!-- ================================================================ -->
  <!-- SNOWFLAKE CAPABILITIES BAND -->
  <!-- ================================================================ -->
  <rect x="40" y="790" width="1520" height="48" rx="6" fill="#FFFFFF" stroke="#B0BEC5" stroke-width="1" filter="url(#shadow)"/>
  <text x="60" y="818" font-size="9" font-weight="700" fill="#455A64">PLATFORM CAPABILITIES:</text>

  <rect x="210" y="804" width="110" height="24" rx="12" fill="#E3F2FD" stroke="#1976D2" stroke-width="1"/>
  <text x="265" y="820" text-anchor="middle" font-size="8" font-weight="600" fill="#1565C0">Dynamic Tables</text>

  <rect x="328" y="804" width="100" height="24" rx="12" fill="#E3F2FD" stroke="#1976D2" stroke-width="1"/>
  <text x="378" y="820" text-anchor="middle" font-size="8" font-weight="600" fill="#1565C0">Cortex Search</text>

  <rect x="436" y="804" width="100" height="24" rx="12" fill="#E3F2FD" stroke="#1976D2" stroke-width="1"/>
  <text x="486" y="820" text-anchor="middle" font-size="8" font-weight="600" fill="#1565C0">Cortex Analyst</text>

  <rect x="544" y="804" width="95" height="24" rx="12" fill="#E3F2FD" stroke="#1976D2" stroke-width="1"/>
  <text x="591" y="820" text-anchor="middle" font-size="8" font-weight="600" fill="#1565C0">Cortex Agent</text>

  <rect x="647" y="804" width="86" height="24" rx="12" fill="#FFF3E0" stroke="#E65100" stroke-width="1"/>
  <text x="690" y="820" text-anchor="middle" font-size="8" font-weight="600" fill="#BF360C">AI_CLASSIFY</text>

  <rect x="741" y="804" width="82" height="24" rx="12" fill="#FFF3E0" stroke="#E65100" stroke-width="1"/>
  <text x="782" y="820" text-anchor="middle" font-size="8" font-weight="600" fill="#BF360C">AI_EXTRACT</text>

  <rect x="831" y="804" width="92" height="24" rx="12" fill="#FFF3E0" stroke="#E65100" stroke-width="1"/>
  <text x="877" y="820" text-anchor="middle" font-size="8" font-weight="600" fill="#BF360C">AI_SENTIMENT</text>

  <rect x="931" y="804" width="98" height="24" rx="12" fill="#FFF3E0" stroke="#E65100" stroke-width="1"/>
  <text x="980" y="820" text-anchor="middle" font-size="8" font-weight="600" fill="#BF360C">AI_TRANSCRIBE</text>

  <rect x="1037" y="804" width="108" height="24" rx="12" fill="#FFF3E0" stroke="#E65100" stroke-width="1"/>
  <text x="1091" y="820" text-anchor="middle" font-size="8" font-weight="600" fill="#BF360C">AI_COMPLETE</text>

  <rect x="1153" y="804" width="100" height="24" rx="12" fill="#E8F5E9" stroke="#2E7D32" stroke-width="1"/>
  <text x="1203" y="820" text-anchor="middle" font-size="8" font-weight="600" fill="#1B5E20">Streamlit in SF</text>

  <rect x="1261" y="804" width="95" height="24" rx="12" fill="#F3E5F5" stroke="#6A1B9A" stroke-width="1"/>
  <text x="1308" y="820" text-anchor="middle" font-size="8" font-weight="600" fill="#4A148C">Data Masking</text>

  <rect x="1364" y="804" width="95" height="24" rx="12" fill="#E0F7FA" stroke="#00838F" stroke-width="1"/>
  <text x="1411" y="820" text-anchor="middle" font-size="8" font-weight="600" fill="#006064">CRON Tasks</text>

  <rect x="1467" y="804" width="75" height="24" rx="12" fill="#F3E5F5" stroke="#6A1B9A" stroke-width="1"/>
  <text x="1504" y="820" text-anchor="middle" font-size="8" font-weight="600" fill="#4A148C">RBAC</text>

  <!-- ================================================================ -->
  <!-- METRICS BAR -->
  <!-- ================================================================ -->
  <rect x="40" y="852" width="1520" height="42" rx="6" fill="#263238" filter="url(#shadow)"/>

  <text x="160" y="873" text-anchor="middle" font-size="20" font-weight="700" fill="#29B5E8">15+</text>
  <text x="160" y="888" text-anchor="middle" font-size="9" fill="#B0BEC5">Snowflake Features</text>
  <line x1="300" y1="860" x2="300" y2="888" stroke="#37474F" stroke-width="1"/>

  <text x="420" y="873" text-anchor="middle" font-size="20" font-weight="700" fill="#FF9800">4×2</text>
  <text x="420" y="888" text-anchor="middle" font-size="9" fill="#B0BEC5">Medallion Tiers</text>
  <line x1="540" y1="860" x2="540" y2="888" stroke="#37474F" stroke-width="1"/>

  <text x="660" y="873" text-anchor="middle" font-size="20" font-weight="700" fill="#EF5350">15-Day</text>
  <text x="660" y="888" text-anchor="middle" font-size="9" fill="#B0BEC5">FDA Reporting Clock</text>
  <line x1="790" y1="860" x2="790" y2="888" stroke="#37474F" stroke-width="1"/>

  <text x="910" y="873" text-anchor="middle" font-size="20" font-weight="700" fill="#4CAF50">Zero</text>
  <text x="910" y="888" text-anchor="middle" font-size="9" fill="#B0BEC5">External Dependencies</text>
  <line x1="1040" y1="860" x2="1040" y2="888" stroke="#37474F" stroke-width="1"/>

  <text x="1160" y="873" text-anchor="middle" font-size="20" font-weight="700" fill="#80DEEA">Zero</text>
  <text x="1160" y="888" text-anchor="middle" font-size="9" fill="#B0BEC5">Data Egress</text>
  <line x1="1290" y1="860" x2="1290" y2="888" stroke="#37474F" stroke-width="1"/>

  <text x="1430" y="873" text-anchor="middle" font-size="20" font-weight="700" fill="#CE93D8">2</text>
  <text x="1430" y="888" text-anchor="middle" font-size="9" fill="#B0BEC5">Unified Pipelines</text>

  <!-- ================================================================ -->
  <!-- LEGEND -->
  <!-- ================================================================ -->
  <rect x="40" y="908" width="1520" height="40" rx="6" fill="#FFFFFF" stroke="#CFD8DC" stroke-width="1"/>
  <text x="70" y="932" font-size="9" font-weight="600" fill="#455A64">LEGEND:</text>
  <rect x="130" y="922" width="14" height="14" rx="3" fill="#E8F5E9" stroke="#2E7D32" stroke-width="1"/>
  <text x="150" y="933" font-size="8" fill="#455A64">RAW (Ingestion)</text>
  <rect x="248" y="922" width="14" height="14" rx="3" fill="#FFF3E0" stroke="#E65100" stroke-width="1"/>
  <text x="268" y="933" font-size="8" fill="#455A64">BRONZE (AI Enrichment)</text>
  <rect x="395" y="922" width="14" height="14" rx="3" fill="#E3F2FD" stroke="#1565C0" stroke-width="1"/>
  <text x="415" y="933" font-size="8" fill="#455A64">SILVER (Curated/CDC)</text>
  <rect x="535" y="922" width="14" height="14" rx="3" fill="#FFF8E1" stroke="#F57F17" stroke-width="1"/>
  <text x="555" y="933" font-size="8" fill="#455A64">GOLD (Intelligence)</text>
  <rect x="665" y="922" width="14" height="14" rx="3" fill="#F3E5F5" stroke="#6A1B9A" stroke-width="1"/>
  <text x="685" y="933" font-size="8" fill="#455A64">Governance</text>
  <line x1="760" y1="929" x2="800" y2="929" stroke="#455A64" stroke-width="1.5" stroke-dasharray="4,3"/>
  <text x="810" y="933" font-size="8" fill="#455A64">Data Flow</text>
  <rect x="875" y="922" width="14" height="14" rx="3" fill="#FFEBEE" stroke="#C62828" stroke-width="1.2"/>
  <text x="895" y="933" font-size="8" fill="#455A64">Regulatory / Critical</text>
  <rect x="1005" y="922" width="14" height="14" rx="3" fill="#EDE7F6" stroke="#6A1B9A" stroke-width="1.2" stroke-dasharray="4,2"/>
  <text x="1025" y="933" font-size="8" fill="#455A64">Cross-Phase Shared</text>

  <!-- ================================================================ -->
  <!-- FOOTER -->
  <!-- ================================================================ -->
  <text x="800" y="970" text-anchor="middle" font-size="10" fill="#78909C">Venkannababu Thatavarthi (Vicky)  |  Integrated Safety Signal Management Platform  |  Confidential</text>
  <rect x="0" y="978" width="1600" height="4" fill="#29B5E8"/>
</svg>